<mxfile host="65bd71144e">
    <diagram id="4EA2yXf_N0KJ4OlM8Pyx" name="第 1 页">
        <mxGraphModel dx="863" dy="570" grid="1" gridSize="10" guides="1" tooltips="1" connect="1" arrows="1" fold="1" page="1" pageScale="1" pageWidth="1169" pageHeight="827" math="0" shadow="0">
            <root>
                <mxCell id="0"/>
                <mxCell id="1" parent="0"/>
                <mxCell id="10" value="" style="shape=umlLifeline;participant=umlActor;perimeter=lifelinePerimeter;whiteSpace=wrap;html=1;container=1;collapsible=0;recursiveResize=0;verticalAlign=top;spacingTop=36;outlineConnect=0;fontSize=32;size=110;strokeWidth=1;perimeterSpacing=0;" vertex="1" parent="1">
                    <mxGeometry x="30" y="19" width="70" height="790" as="geometry"/>
                </mxCell>
                <mxCell id="14" value="" style="html=1;points=[];perimeter=orthogonalPerimeter;strokeWidth=1;fontSize=32;fillColor=#1ba1e2;strokeColor=#006EAF;fontColor=#ffffff;" vertex="1" parent="10">
                    <mxGeometry x="30" y="120" width="10" height="670" as="geometry"/>
                </mxCell>
                <mxCell id="11" value="&lt;font style=&quot;font-size: 20px;&quot;&gt;用户&lt;/font&gt;" style="text;html=1;strokeColor=none;fillColor=none;align=center;verticalAlign=middle;whiteSpace=wrap;rounded=0;fontSize=32;" vertex="1" parent="10">
                    <mxGeometry y="90" width="80" height="30" as="geometry"/>
                </mxCell>
                <mxCell id="16" value="首次启动" style="html=1;verticalAlign=bottom;endArrow=block;fontSize=20;strokeWidth=4;" edge="1" parent="10" target="15">
                    <mxGeometry x="-0.0381" y="10" width="80" relative="1" as="geometry">
                        <mxPoint x="40" y="181" as="sourcePoint"/>
                        <mxPoint x="120" y="181" as="targetPoint"/>
                        <mxPoint as="offset"/>
                    </mxGeometry>
                </mxCell>
                <mxCell id="39" value="新建项目" style="html=1;verticalAlign=bottom;endArrow=block;strokeWidth=4;fontSize=20;" edge="1" parent="10" target="15">
                    <mxGeometry width="80" relative="1" as="geometry">
                        <mxPoint x="40" y="571" as="sourcePoint"/>
                        <mxPoint x="120" y="571" as="targetPoint"/>
                    </mxGeometry>
                </mxCell>
                <mxCell id="15" value="&lt;font style=&quot;font-size: 20px;&quot;&gt;IDE&lt;/font&gt;" style="shape=umlLifeline;perimeter=lifelinePerimeter;whiteSpace=wrap;html=1;container=1;collapsible=0;recursiveResize=0;outlineConnect=0;strokeWidth=1;fontSize=32;" vertex="1" parent="1">
                    <mxGeometry x="250" y="19" width="140" height="791" as="geometry"/>
                </mxCell>
                <mxCell id="17" value="" style="html=1;points=[];perimeter=orthogonalPerimeter;strokeWidth=1;fontSize=20;fillColor=#1ba1e2;fontColor=#ffffff;strokeColor=#006EAF;" vertex="1" parent="15">
                    <mxGeometry x="65" y="181" width="10" height="319" as="geometry"/>
                </mxCell>
                <mxCell id="22" value="如果登录" style="html=1;verticalAlign=bottom;endArrow=block;strokeWidth=4;fontSize=20;" edge="1" parent="15" target="19">
                    <mxGeometry width="80" relative="1" as="geometry">
                        <mxPoint x="70" y="231" as="sourcePoint"/>
                        <mxPoint x="150" y="231" as="targetPoint"/>
                    </mxGeometry>
                </mxCell>
                <mxCell id="34" value="" style="html=1;points=[];perimeter=orthogonalPerimeter;strokeWidth=2;fontSize=20;fillColor=#1ba1e2;fontColor=#ffffff;strokeColor=#006EAF;" vertex="1" parent="15">
                    <mxGeometry x="65" y="531" width="10" height="139" as="geometry"/>
                </mxCell>
                <mxCell id="35" value="启动项目，并转到编辑器界面" style="edgeStyle=orthogonalEdgeStyle;html=1;align=left;spacingLeft=2;endArrow=block;rounded=0;strokeWidth=4;fontSize=20;movable=1;resizable=1;rotatable=1;deletable=1;editable=1;connectable=1;exitX=1.065;exitY=0.122;exitDx=0;exitDy=0;exitPerimeter=0;" edge="1" target="34" parent="15" source="34">
                    <mxGeometry relative="1" as="geometry">
                        <mxPoint x="70" y="501" as="sourcePoint"/>
                        <Array as="points">
                            <mxPoint x="100" y="548"/>
                            <mxPoint x="100" y="601"/>
                        </Array>
                        <mxPoint x="75" y="531" as="targetPoint"/>
                    </mxGeometry>
                </mxCell>
                <mxCell id="40" value="" style="html=1;points=[];perimeter=orthogonalPerimeter;strokeWidth=2;fontSize=20;fillColor=#1ba1e2;fontColor=#ffffff;strokeColor=#006EAF;" vertex="1" parent="15">
                    <mxGeometry x="65" y="701" width="10" height="80" as="geometry"/>
                </mxCell>
                <mxCell id="19" value="&lt;font style=&quot;font-size: 20px;&quot;&gt;账户系统&lt;/font&gt;" style="shape=umlLifeline;perimeter=lifelinePerimeter;whiteSpace=wrap;html=1;container=1;collapsible=0;recursiveResize=0;outlineConnect=0;strokeWidth=1;fontSize=32;" vertex="1" parent="1">
                    <mxGeometry x="660" y="19" width="140" height="791" as="geometry"/>
                </mxCell>
                <mxCell id="20" value="" style="html=1;points=[];perimeter=orthogonalPerimeter;strokeWidth=1;fontSize=20;fillColor=#1ba1e2;fontColor=#ffffff;strokeColor=#006EAF;" vertex="1" parent="19">
                    <mxGeometry x="65" y="231" width="10" height="319" as="geometry"/>
                </mxCell>
                <mxCell id="25" value="alt" style="shape=umlFrame;whiteSpace=wrap;html=1;strokeWidth=2;fontSize=20;" vertex="1" parent="1">
                    <mxGeometry x="300" y="270" width="460" height="200" as="geometry"/>
                </mxCell>
                <mxCell id="26" value="登录成功" style="html=1;verticalAlign=bottom;endArrow=open;dashed=1;endSize=8;strokeWidth=4;fontSize=20;entryX=0.059;entryY=0.25;entryDx=0;entryDy=0;entryPerimeter=0;exitX=0.935;exitY=0.25;exitDx=0;exitDy=0;exitPerimeter=0;" edge="1" parent="1" source="25" target="25">
                    <mxGeometry relative="1" as="geometry">
                        <mxPoint x="600" y="320" as="sourcePoint"/>
                        <mxPoint x="520" y="320" as="targetPoint"/>
                        <mxPoint as="offset"/>
                    </mxGeometry>
                </mxCell>
                <mxCell id="31" value="登录失败" style="html=1;verticalAlign=bottom;endArrow=open;dashed=1;endSize=8;strokeWidth=4;fontSize=20;entryX=0.059;entryY=0.55;entryDx=0;entryDy=0;entryPerimeter=0;exitX=0.935;exitY=0.55;exitDx=0;exitDy=0;exitPerimeter=0;" edge="1" parent="1" source="25" target="25">
                    <mxGeometry relative="1" as="geometry">
                        <mxPoint x="600" y="380" as="sourcePoint"/>
                        <mxPoint x="520" y="380" as="targetPoint"/>
                    </mxGeometry>
                </mxCell>
                <mxCell id="32" value="[如果邮箱账户、密码正确]" style="text;html=1;strokeColor=none;fillColor=none;align=center;verticalAlign=middle;whiteSpace=wrap;rounded=0;strokeWidth=2;fontSize=20;" vertex="1" parent="1">
                    <mxGeometry x="320" y="414" width="270" height="30" as="geometry"/>
                </mxCell>
                <mxCell id="38" value="打开项目" style="html=1;verticalAlign=bottom;endArrow=block;strokeWidth=4;fontSize=20;exitX=1;exitY=0.615;exitDx=0;exitDy=0;exitPerimeter=0;" edge="1" parent="1" source="14" target="15">
                    <mxGeometry width="80" relative="1" as="geometry">
                        <mxPoint x="70" y="560" as="sourcePoint"/>
                        <mxPoint x="150" y="560" as="targetPoint"/>
                        <Array as="points">
                            <mxPoint x="260" y="550"/>
                        </Array>
                    </mxGeometry>
                </mxCell>
                <mxCell id="42" value="展示编辑器界面" style="html=1;verticalAlign=bottom;endArrow=open;dashed=1;endSize=8;exitX=0;exitY=0.95;strokeWidth=4;fontSize=20;" edge="1" source="40" parent="1" target="10">
                    <mxGeometry relative="1" as="geometry">
                        <mxPoint x="245" y="796" as="targetPoint"/>
                    </mxGeometry>
                </mxCell>
            </root>
        </mxGraphModel>
    </diagram>
</mxfile>